<svg xmlns="http://www.w3.org/2000/svg" viewBox="0 0 241.04 186.23"><defs><style>.cls-1,.cls-7{font-size:76.46px;fill:#070308;font-family:Raleway-Bold, Raleway;font-weight:700;}.cls-1{letter-spacing:-0.03em;}.cls-2{letter-spacing:-0.01em;}.cls-3{letter-spacing:-0.03em;}.cls-4{fill:#e5b327;}.cls-5{fill:#1e130e;}.cls-6{fill:#edc841;}.cls-8{letter-spacing:-0.03em;}</style></defs><title>Ativo 1</title><g id="Camada_2" data-name="Camada 2"><g id="Camada_1-2" data-name="Camada 1"><text class="cls-1" transform="translate(0 69.96)">A<tspan class="cls-2" x="49.39" y="0">C</tspan><tspan class="cls-3" x="101.08" y="0">Á</tspan></text><circle class="cls-4" cx="88.11" cy="150.65" r="18.69"/><circle class="cls-4" cx="150.76" cy="75.95" r="18.69"/><circle class="cls-4" cx="114.38" cy="103.75" r="13.14"/><circle class="cls-4" cx="184.74" cy="60.92" r="12.78"/><circle class="cls-4" cx="215.35" cy="30.57" r="8.56"/><path class="cls-5" d="M37.6,179.06c1.74-2.2,3.41-4.22,5.15-6.28s3.47-4.06,5.22-6.06q5.28-6,10.69-11.85c7.22-7.79,14.66-15.37,22.24-22.78,15.17-14.83,31.06-28.88,47.51-42.2Q140.8,80,153.61,70.62l6.46-4.6,3.24-2.29,3.27-2.23,6.56-4.45,6.64-4.33c2.2-1.46,4.45-2.85,6.69-4.24s4.47-2.8,6.74-4.16c4.55-2.67,9-5.43,13.68-8,9.15-5.25,18.57-10,28-14.67-9.22,5.11-18.38,10.3-27.25,16-4.49,2.74-8.83,5.7-13.24,8.57-2.18,1.46-4.33,3-6.5,4.46s-4.33,3-6.44,4.53l-6.39,4.6-6.3,4.73-3.15,2.37-3.1,2.43-6.19,4.86q-12.27,9.85-24.06,20.28c-15.65,14-30.69,28.57-44.94,43.9q-10.7,11.49-20.81,23.45-5.06,6-9.92,12.1c-1.62,2-3.23,4.08-4.8,6.14s-3.16,4.16-4.59,6.16Z"/><circle class="cls-6" cx="92.38" cy="145.37" r="13.71"/><circle class="cls-6" cx="204.47" cy="44.59" r="13.28"/><circle class="cls-6" cx="63.19" cy="149.05" r="18.69"/><circle class="cls-6" cx="90.62" cy="118.47" r="17.13"/><circle class="cls-6" cx="115.5" cy="120.83" r="13.71"/><circle class="cls-6" cx="232.48" cy="30" r="8.56"/><circle class="cls-6" cx="124.46" cy="85.26" r="14.35"/><circle class="cls-6" cx="153.61" cy="88.87" r="18.6"/><circle class="cls-6" cx="165.49" cy="66.92" r="13.28"/><circle class="cls-6" cx="188.73" cy="41.43" r="11.34"/><text class="cls-7" transform="translate(115.49 158.13)">CI<tspan class="cls-8" x="74.32" y="0">A</tspan></text></g></g></svg>