<svg xmlns="http://www.w3.org/2000/svg" viewBox="0 0 203.45 164.8"><defs><style>.cls-1{fill:#e5b327;}.cls-2{fill:#1e130e;}.cls-3{fill:#edc841;}</style></defs><title>Ativo 4</title><g id="Camada_2" data-name="Camada 2"><g id="Camada_1-2" data-name="Camada 1"><circle class="cls-1" cx="50.51" cy="129.21" r="18.69"/><circle class="cls-1" cx="113.16" cy="54.51" r="18.69"/><circle class="cls-1" cx="76.79" cy="82.32" r="13.14"/><circle class="cls-1" cx="147.14" cy="39.49" r="12.78"/><circle class="cls-1" cx="177.76" cy="9.13" r="8.56"/><path class="cls-2" d="M0,157.62c1.75-2.2,3.42-4.21,5.16-6.27s3.46-4.06,5.22-6.06q5.26-6,10.69-11.85,10.83-11.7,22.24-22.78c15.16-14.84,31.05-28.88,47.5-42.2Q103.2,58.55,116,49.19l6.46-4.6,3.23-2.29L129,40.07l6.56-4.45,6.63-4.33c2.2-1.46,4.45-2.85,6.7-4.24s4.47-2.8,6.73-4.16c4.56-2.67,9-5.43,13.68-8,9.15-5.25,18.57-10,28-14.67-9.21,5.1-18.37,10.29-27.24,16-4.49,2.73-8.84,5.7-13.24,8.57-2.19,1.45-4.33,3-6.5,4.45s-4.33,3-6.45,4.53l-6.39,4.61-6.3,4.73L128,45.48l-3.1,2.42-6.19,4.87Q106.47,62.63,94.69,73C79,87,64,101.62,49.75,117c-7.13,7.65-14.1,15.46-20.82,23.45q-5.05,6-9.92,12.1-2.43,3-4.8,6.14c-1.56,2-3.16,4.16-4.59,6.16Z"/><circle class="cls-3" cx="54.78" cy="123.94" r="13.71"/><circle class="cls-3" cx="166.88" cy="23.16" r="13.28"/><circle class="cls-3" cx="25.59" cy="127.62" r="18.69"/><circle class="cls-3" cx="53.02" cy="97.04" r="17.13"/><circle class="cls-3" cx="77.9" cy="99.39" r="13.71"/><circle class="cls-3" cx="194.88" cy="8.56" r="8.56"/><circle class="cls-3" cx="86.86" cy="63.83" r="14.35"/><circle class="cls-3" cx="116.02" cy="67.43" r="18.6"/><circle class="cls-3" cx="127.9" cy="45.49" r="13.28"/><circle class="cls-3" cx="151.13" cy="20" r="11.34"/></g></g></svg>