<svg xmlns="http://www.w3.org/2000/svg" viewBox="0 0 149.39 120.33"><defs><style>.cls-1,.cls-2{fill:#070308;}.cls-1{stroke:#fff;stroke-miterlimit:10;stroke-width:2px;}</style></defs><title>Ativo 6</title><g id="Camada_2" data-name="Camada 2"><g id="Camada_1-2" data-name="Camada 1"><circle class="cls-1" cx="37.67" cy="93.83" r="13.42"/><circle class="cls-1" cx="82.65" cy="40.2" r="13.42"/><circle class="cls-1" cx="56.53" cy="60.16" r="9.43"/><circle class="cls-1" cx="107.05" cy="29.41" r="9.18"/><circle class="cls-1" cx="129.03" cy="7.62" r="6.15"/><path class="cls-2" d="M0,113.29l1.77-2.2c.58-.71,1.16-1.41,1.75-2.1,1.17-1.39,2.34-2.78,3.54-4.14,2.36-2.74,4.81-5.4,7.23-8.07s4.94-5.25,7.43-7.85,5.05-5.13,7.61-7.65c10.24-10.09,21-19.63,32.15-28.64,5.5-4.59,11.3-8.82,17-13.14,2.91-2.08,5.87-4.1,8.8-6.15l4.4-3.06,4.53-2.89c3-1.91,6-3.86,9-5.74l9.28-5.35c1.55-.88,3.08-1.79,4.65-2.65l4.76-2.44,9.51-4.87-9.14,5.52-4.56,2.76c-1.5,1-3,2-4.43,3l-8.83,5.95c-2.88,2.08-5.71,4.22-8.57,6.32L93.65,33l-4.14,3.33c-2.75,2.23-5.53,4.43-8.25,6.69-5.33,4.66-10.74,9.21-15.85,14.12C55.07,66.81,45.18,76.9,35.86,87.48c-2.34,2.64-4.61,5.34-6.91,8s-4.49,5.42-6.7,8.15-4.36,5.5-6.45,8.31c-1.07,1.39-2.1,2.8-3.12,4.21-.52.7-1,1.4-1.52,2.11l-1.44,2.07Z"/><circle class="cls-1" cx="40.74" cy="90.05" r="9.84"/><circle class="cls-1" cx="121.22" cy="17.69" r="9.54"/><circle class="cls-1" cx="19.78" cy="92.69" r="13.42"/><circle class="cls-1" cx="39.47" cy="70.73" r="12.3"/><circle class="cls-1" cx="57.33" cy="72.42" r="9.84"/><circle class="cls-1" cx="142.25" cy="7.15" r="6.15"/><circle class="cls-1" cx="63.77" cy="46.89" r="10.3"/><circle class="cls-1" cx="84.7" cy="49.48" r="13.36"/><circle class="cls-1" cx="93.23" cy="33.72" r="9.54"/><circle class="cls-1" cx="109.92" cy="15.42" r="8.14"/></g></g></svg>